<svg width="137" height="40" viewBox="0 0 137 40" fill="none" xmlns="http://www.w3.org/2000/svg">
<g clip-path="url(#clip0_2_4)">
<path d="M116.081 -1.91771e-06C113.265 -0.000502609 110.558 1.07969 108.516 3.01764C106.474 4.95559 105.254 7.60342 105.107 10.4148C104.961 13.2261 105.899 15.9864 107.728 18.1261C109.558 20.2657 112.139 21.6214 114.939 21.9135V16.7279H115.216L118.612 21.6657C121.226 21.0405 123.521 19.4781 125.061 17.2744C126.601 15.0706 127.279 12.3786 126.967 9.70831C126.655 7.03801 125.375 4.57485 123.368 2.7854C121.362 0.995948 118.769 0.00448965 116.081 -0.00115967V-1.91771e-06Z" fill="#FF5B4F"/>
<path d="M0 11.0492V5.86365H27.2223V11.0492H16.6971V40H10.5513V11.0492H0Z" fill="white"/>
<path d="M39.2898 5.86365V39.968H33.1168V5.86365H39.2898Z" fill="white"/>
<path d="M45.1855 11.0492V5.86365H72.4078V11.0492H61.8566V40H55.7143V11.0492H45.1855Z" fill="white"/>
<path d="M78.5181 39.968H71.9443L83.9502 5.86365H91.5732L103.61 39.968H97.0065L87.9016 12.8382H87.6242L78.5181 39.968ZM78.7338 26.6034H96.7279V31.572H78.7338V26.6034Z" fill="white"/>
<path d="M136.791 5.86365V39.968H131.291L115.21 16.7315H114.933V39.968H108.766V5.86365H114.29L130.343 29.1357H130.651V5.86365H136.791Z" fill="white"/>
</g>
<defs>
<clipPath id="clip0_2_4">
<rect width="136.791" height="40" fill="white"/>
</clipPath>
</defs>
</svg>
